<svg width="13" height="16" viewBox="0 0 13 16" fill="none" xmlns="http://www.w3.org/2000/svg">
<path d="M8.70499 2.8925C8.98853 2.56571 9.20472 2.18613 9.34115 1.77555C9.47758 1.36498 9.53156 0.931496 9.49999 0.5C8.62953 0.570265 7.8215 0.979667 7.24999 1.64C6.97632 1.95648 6.76893 2.32466 6.6401 2.72273C6.51127 3.12081 6.46363 3.54068 6.49999 3.9575C6.9246 3.96104 7.34433 3.86682 7.72669 3.68214C8.10905 3.49747 8.44379 3.22728 8.70499 2.8925ZM10.595 8.4725C10.6 7.8978 10.7514 7.33386 11.0348 6.8339C11.3183 6.33394 11.7244 5.91444 12.215 5.615C11.9054 5.16893 11.4962 4.80112 11.0197 4.54076C10.5432 4.28039 10.0126 4.13461 9.46999 4.115C8.29999 3.995 7.21999 4.7975 6.59749 4.7975C5.97499 4.7975 5.09749 4.13 4.12249 4.145C3.48509 4.166 2.86401 4.35184 2.31983 4.68439C1.77565 5.01694 1.32695 5.48486 1.01749 6.0425C-0.302505 8.3375 0.679995 11.75 1.99999 13.6025C2.59999 14.51 3.34999 15.5375 4.33999 15.5C5.32999 15.4625 5.65249 14.885 6.79999 14.885C7.94749 14.885 8.29999 15.5 9.27499 15.4775C10.25 15.455 10.94 14.5475 11.57 13.64C12.0163 12.9811 12.3649 12.2612 12.605 11.5025C12.0106 11.249 11.5035 10.827 11.1463 10.2885C10.7891 9.75 10.5974 9.11868 10.595 8.4725Z" fill="white"/>
</svg>
