<svg width="14" height="15" viewBox="0 0 14 15" fill="none" xmlns="http://www.w3.org/2000/svg">
<path d="M4.75 0.5C5.16421 0.5 5.5 0.835786 5.5 1.25V2H8.5V1.25C8.5 0.835786 8.83579 0.5 9.25 0.5C9.66421 0.5 10 0.835786 10 1.25V2H12.25C13.0784 2 13.75 2.67157 13.75 3.5V13.25C13.75 14.0784 13.0784 14.75 12.25 14.75H1.75C0.921573 14.75 0.25 14.0784 0.25 13.25V3.5C0.25 2.67157 0.921573 2 1.75 2H4V1.25C4 0.835786 4.33579 0.5 4.75 0.5ZM4 3.5H1.75V5.75H12.25V3.5H10V4.25C10 4.66421 9.66421 5 9.25 5C8.83579 5 8.5 4.66421 8.5 4.25V3.5H5.5V4.25C5.5 4.66421 5.16421 5 4.75 5C4.33579 5 4 4.66421 4 4.25V3.5ZM12.25 7.25H1.75V13.25H12.25V7.25Z" fill="#0D0D0D"/>
</svg>
