<svg width="14" height="14" viewBox="0 0 14 14" fill="none" xmlns="http://www.w3.org/2000/svg">
<path d="M7.46698 5.76698V8.35523H11.061C10.7265 9.99998 9.32623 10.945 7.46698 10.945C5.3014 10.9152 3.56148 9.15115 3.56148 6.98536C3.56148 4.81956 5.3014 3.05554 7.46698 3.02573C8.36714 3.02466 9.23959 3.33704 9.93448 3.90923L11.8845 1.95923C9.64768 -0.00721434 6.38099 -0.260139 3.86815 1.33857C1.35532 2.93727 0.200254 6.00339 1.03367 8.8627C1.86709 11.722 4.4887 13.6873 7.46698 13.6855C10.8172 13.6855 13.8637 11.2487 13.8637 6.98498C13.8586 6.57446 13.8083 6.16576 13.7137 5.76623L7.46698 5.76698Z" fill="white"/>
</svg>
